<svg width="323" height="366" viewBox="0 0 323 366" fill="none" xmlns="http://www.w3.org/2000/svg">
<path fill-rule="evenodd" clip-rule="evenodd" d="M299.144 224.315C330.564 205.732 330.564 160.268 299.144 141.685L72.4351 7.60199C40.4377 -11.3223 3.23057e-05 11.7424 3.23057e-05 48.9171V317.083C3.23057e-05 354.258 40.4377 377.322 72.4351 358.398L140.293 318.265L118.183 284.575L60.6246 318.602C51.2921 324.119 39.5 317.392 39.5 306.55V59.4496C39.5 48.6082 51.2921 41.8809 60.6246 47.3981L269.614 170.948C278.782 176.368 278.782 189.632 269.614 195.052L188.576 242.96L210.678 276.637L299.144 224.315ZM186.127 291.157L164.022 257.475L142.736 270.059L164.844 303.745L186.127 291.157Z" fill="white"/>
</svg>
